<svg width="22" height="22" viewBox="0 0 22 22" fill="none" xmlns="http://www.w3.org/2000/svg">
<path d="M22 11.599C22 10.3374 21.7625 9.12782 21.3271 8.00879C21.0294 11.3059 19.1704 12.9994 17.2279 12.2108C15.4084 11.4717 16.6346 8.59063 16.7252 7.21586C16.8779 4.88542 16.7174 2.21787 12.2404 0C14.1007 3.36504 12.4559 5.45564 10.7308 5.5829C8.81682 5.72423 7.06394 4.02764 7.711 1.27443C5.61582 2.73425 5.555 5.19133 6.20141 6.78086C6.87565 8.43768 6.17424 9.81428 4.53006 9.96724C2.69241 10.1386 1.67135 8.10668 2.61282 4.8689C0.98353 6.68296 0 9.03237 0 11.599C0 17.3434 4.92477 22 11 22C17.0752 22 22 17.3434 22 11.599Z" fill="#F4900C"/>
<path d="M17.7258 14.6575C17.8215 16.5444 16.0687 17.2841 15.1252 16.9268C13.7625 16.411 14.1281 15.5251 13.7774 13.6896C13.4267 11.8542 12.0789 10.5797 10.084 10.0187C11.5399 13.8934 9.27712 15.3214 8.09106 15.5765C6.87977 15.8371 5.66265 15.5759 5.52354 13.1249C4.11036 14.455 3.23553 16.2954 3.23553 18.3291C3.23553 18.5542 3.25042 18.7757 3.27112 18.996C5.25759 20.8523 7.98624 22 11.0002 22C14.0142 22 16.7429 20.8523 18.7294 18.996C18.7501 18.7757 18.7649 18.5542 18.7649 18.3291C18.7649 16.991 18.3871 15.7374 17.7258 14.6575Z" fill="#FFCC4D"/>
</svg>
